<mxfile host="app.diagrams.net" agent="Mozilla/5.0 (Windows NT 10.0; Win64; x64) AppleWebKit/537.36 (KHTML, like Gecko) Chrome/126.0.0.0 Safari/537.36 OPR/112.0.0.0" version="24.7.6">
  <diagram name="Seite-1" id="Qz1EJ7uLeoM_60EMIDXN">
    <mxGraphModel dx="1184" dy="1478" grid="0" gridSize="10" guides="1" tooltips="1" connect="1" arrows="1" fold="1" page="1" pageScale="1" pageWidth="1169" pageHeight="827" background="none" math="0" shadow="0">
      <root>
        <mxCell id="0" />
        <mxCell id="1" parent="0" />
        <mxCell id="69dHTjxdRG7O87KD0P2G-1" value="E-COURSE" style="rounded=0;whiteSpace=wrap;html=1;" parent="1" vertex="1">
          <mxGeometry x="540" y="540" width="120" height="60" as="geometry" />
        </mxCell>
        <mxCell id="69dHTjxdRG7O87KD0P2G-2" value="&lt;span style=&quot;color: rgb(32, 33, 34); font-family: sans-serif; font-size: 14px; text-align: start; background-color: rgb(255, 255, 255);&quot;&gt;&lt;u&gt;LVANR&lt;/u&gt;&lt;/span&gt;" style="ellipse;whiteSpace=wrap;html=1;" parent="1" vertex="1">
          <mxGeometry x="480" y="470" width="80" height="50" as="geometry" />
        </mxCell>
        <mxCell id="69dHTjxdRG7O87KD0P2G-3" value="" style="endArrow=none;html=1;rounded=0;entryX=0.25;entryY=0;entryDx=0;entryDy=0;exitX=1;exitY=1;exitDx=0;exitDy=0;" parent="1" source="69dHTjxdRG7O87KD0P2G-2" target="69dHTjxdRG7O87KD0P2G-1" edge="1">
          <mxGeometry width="50" height="50" relative="1" as="geometry">
            <mxPoint x="580" y="600" as="sourcePoint" />
            <mxPoint x="630" y="550" as="targetPoint" />
          </mxGeometry>
        </mxCell>
        <mxCell id="69dHTjxdRG7O87KD0P2G-4" value="LEARNING OBJECTS" style="rounded=0;whiteSpace=wrap;html=1;" parent="1" vertex="1">
          <mxGeometry x="820" y="730" width="120" height="60" as="geometry" />
        </mxCell>
        <mxCell id="69dHTjxdRG7O87KD0P2G-5" value="Name" style="ellipse;whiteSpace=wrap;html=1;" parent="1" vertex="1">
          <mxGeometry x="486" y="620" width="60" height="40" as="geometry" />
        </mxCell>
        <mxCell id="69dHTjxdRG7O87KD0P2G-6" value="" style="endArrow=none;html=1;rounded=0;entryX=1;entryY=0;entryDx=0;entryDy=0;exitX=0.25;exitY=1;exitDx=0;exitDy=0;" parent="1" source="69dHTjxdRG7O87KD0P2G-1" target="69dHTjxdRG7O87KD0P2G-5" edge="1">
          <mxGeometry width="50" height="50" relative="1" as="geometry">
            <mxPoint x="780" y="780" as="sourcePoint" />
            <mxPoint x="830" y="730" as="targetPoint" />
          </mxGeometry>
        </mxCell>
        <mxCell id="69dHTjxdRG7O87KD0P2G-7" value="PERSON" style="rounded=0;whiteSpace=wrap;html=1;" parent="1" vertex="1">
          <mxGeometry x="150" y="460" width="120" height="60" as="geometry" />
        </mxCell>
        <mxCell id="69dHTjxdRG7O87KD0P2G-8" value="Maximum" style="ellipse;whiteSpace=wrap;html=1;" parent="1" vertex="1">
          <mxGeometry x="643" y="628" width="64" height="36" as="geometry" />
        </mxCell>
        <mxCell id="69dHTjxdRG7O87KD0P2G-9" value="" style="endArrow=none;html=1;rounded=0;exitX=0;exitY=0;exitDx=0;exitDy=0;entryX=0.75;entryY=1;entryDx=0;entryDy=0;" parent="1" source="69dHTjxdRG7O87KD0P2G-8" target="69dHTjxdRG7O87KD0P2G-1" edge="1">
          <mxGeometry width="50" height="50" relative="1" as="geometry">
            <mxPoint x="780" y="780" as="sourcePoint" />
            <mxPoint x="830" y="730" as="targetPoint" />
          </mxGeometry>
        </mxCell>
        <mxCell id="69dHTjxdRG7O87KD0P2G-10" value="LEARNING MODUL" style="rounded=0;whiteSpace=wrap;html=1;" parent="1" vertex="1">
          <mxGeometry x="540" y="730" width="120" height="60" as="geometry" />
        </mxCell>
        <mxCell id="69dHTjxdRG7O87KD0P2G-11" value="Size" style="ellipse;whiteSpace=wrap;html=1;" parent="1" vertex="1">
          <mxGeometry x="650" y="475" width="60" height="30" as="geometry" />
        </mxCell>
        <mxCell id="69dHTjxdRG7O87KD0P2G-12" value="" style="endArrow=none;html=1;rounded=0;entryX=0.75;entryY=0;entryDx=0;entryDy=0;exitX=0;exitY=1;exitDx=0;exitDy=0;" parent="1" source="69dHTjxdRG7O87KD0P2G-11" target="69dHTjxdRG7O87KD0P2G-1" edge="1">
          <mxGeometry width="50" height="50" relative="1" as="geometry">
            <mxPoint x="780" y="780" as="sourcePoint" />
            <mxPoint x="830" y="730" as="targetPoint" />
          </mxGeometry>
        </mxCell>
        <mxCell id="69dHTjxdRG7O87KD0P2G-13" value="TEST MODUL" style="rounded=0;whiteSpace=wrap;html=1;" parent="1" vertex="1">
          <mxGeometry x="540" y="330" width="120" height="60" as="geometry" />
        </mxCell>
        <mxCell id="69dHTjxdRG7O87KD0P2G-14" value="Name" style="ellipse;whiteSpace=wrap;html=1;" parent="1" vertex="1">
          <mxGeometry x="447" y="695" width="70" height="40" as="geometry" />
        </mxCell>
        <mxCell id="69dHTjxdRG7O87KD0P2G-15" value="" style="endArrow=none;html=1;rounded=0;entryX=0;entryY=0.25;entryDx=0;entryDy=0;exitX=1;exitY=1;exitDx=0;exitDy=0;" parent="1" source="69dHTjxdRG7O87KD0P2G-14" target="69dHTjxdRG7O87KD0P2G-10" edge="1">
          <mxGeometry width="50" height="50" relative="1" as="geometry">
            <mxPoint x="780" y="780" as="sourcePoint" />
            <mxPoint x="830" y="730" as="targetPoint" />
          </mxGeometry>
        </mxCell>
        <mxCell id="69dHTjxdRG7O87KD0P2G-16" value="&lt;u&gt;ID-LM&lt;/u&gt;" style="ellipse;whiteSpace=wrap;html=1;" parent="1" vertex="1">
          <mxGeometry x="447" y="770" width="56" height="30" as="geometry" />
        </mxCell>
        <mxCell id="69dHTjxdRG7O87KD0P2G-17" value="" style="endArrow=none;html=1;rounded=0;exitX=0;exitY=0.5;exitDx=0;exitDy=0;entryX=1;entryY=0.5;entryDx=0;entryDy=0;" parent="1" source="69dHTjxdRG7O87KD0P2G-10" target="69dHTjxdRG7O87KD0P2G-16" edge="1">
          <mxGeometry width="50" height="50" relative="1" as="geometry">
            <mxPoint x="900" y="340" as="sourcePoint" />
            <mxPoint x="950" y="290" as="targetPoint" />
          </mxGeometry>
        </mxCell>
        <mxCell id="69dHTjxdRG7O87KD0P2G-20" value="consists of" style="rhombus;whiteSpace=wrap;html=1;" parent="1" vertex="1">
          <mxGeometry x="560" y="640" width="80" height="50" as="geometry" />
        </mxCell>
        <mxCell id="69dHTjxdRG7O87KD0P2G-21" value="" style="endArrow=none;html=1;rounded=0;entryX=0.5;entryY=1;entryDx=0;entryDy=0;exitX=0.5;exitY=0;exitDx=0;exitDy=0;" parent="1" source="69dHTjxdRG7O87KD0P2G-20" target="69dHTjxdRG7O87KD0P2G-1" edge="1">
          <mxGeometry width="50" height="50" relative="1" as="geometry">
            <mxPoint x="780" y="780" as="sourcePoint" />
            <mxPoint x="830" y="730" as="targetPoint" />
          </mxGeometry>
        </mxCell>
        <mxCell id="69dHTjxdRG7O87KD0P2G-22" value="" style="endArrow=none;html=1;rounded=0;exitX=0.5;exitY=0;exitDx=0;exitDy=0;entryX=0.5;entryY=1;entryDx=0;entryDy=0;" parent="1" source="69dHTjxdRG7O87KD0P2G-10" target="69dHTjxdRG7O87KD0P2G-20" edge="1">
          <mxGeometry width="50" height="50" relative="1" as="geometry">
            <mxPoint x="780" y="780" as="sourcePoint" />
            <mxPoint x="830" y="730" as="targetPoint" />
          </mxGeometry>
        </mxCell>
        <mxCell id="69dHTjxdRG7O87KD0P2G-23" value="&lt;u&gt;Name&lt;/u&gt;" style="ellipse;whiteSpace=wrap;html=1;" parent="1" vertex="1">
          <mxGeometry x="780" y="675" width="70" height="40" as="geometry" />
        </mxCell>
        <mxCell id="69dHTjxdRG7O87KD0P2G-24" value="" style="endArrow=none;html=1;rounded=0;entryX=0.25;entryY=0;entryDx=0;entryDy=0;exitX=1;exitY=1;exitDx=0;exitDy=0;" parent="1" source="69dHTjxdRG7O87KD0P2G-23" target="69dHTjxdRG7O87KD0P2G-4" edge="1">
          <mxGeometry width="50" height="50" relative="1" as="geometry">
            <mxPoint x="1345" y="790" as="sourcePoint" />
            <mxPoint x="1105" y="755" as="targetPoint" />
          </mxGeometry>
        </mxCell>
        <mxCell id="69dHTjxdRG7O87KD0P2G-25" value="Type" style="ellipse;whiteSpace=wrap;html=1;" parent="1" vertex="1">
          <mxGeometry x="920" y="670" width="70" height="40" as="geometry" />
        </mxCell>
        <mxCell id="69dHTjxdRG7O87KD0P2G-26" value="" style="endArrow=none;html=1;rounded=0;entryX=0.75;entryY=0;entryDx=0;entryDy=0;exitX=0;exitY=1;exitDx=0;exitDy=0;" parent="1" source="69dHTjxdRG7O87KD0P2G-25" target="69dHTjxdRG7O87KD0P2G-4" edge="1">
          <mxGeometry width="50" height="50" relative="1" as="geometry">
            <mxPoint x="910" y="650" as="sourcePoint" />
            <mxPoint x="1090" y="815" as="targetPoint" />
          </mxGeometry>
        </mxCell>
        <mxCell id="69dHTjxdRG7O87KD0P2G-27" value="&lt;u&gt;Definition&lt;/u&gt;" style="ellipse;whiteSpace=wrap;html=1;" parent="1" vertex="1">
          <mxGeometry x="450" y="290" width="70" height="40" as="geometry" />
        </mxCell>
        <mxCell id="69dHTjxdRG7O87KD0P2G-28" value="" style="endArrow=none;html=1;rounded=0;entryX=0;entryY=0.25;entryDx=0;entryDy=0;exitX=1;exitY=1;exitDx=0;exitDy=0;" parent="1" source="69dHTjxdRG7O87KD0P2G-27" target="69dHTjxdRG7O87KD0P2G-13" edge="1">
          <mxGeometry width="50" height="50" relative="1" as="geometry">
            <mxPoint x="765" y="310" as="sourcePoint" />
            <mxPoint x="530" y="275" as="targetPoint" />
          </mxGeometry>
        </mxCell>
        <mxCell id="69dHTjxdRG7O87KD0P2G-29" value="Mode" style="ellipse;whiteSpace=wrap;html=1;" parent="1" vertex="1">
          <mxGeometry x="440" y="360" width="70" height="40" as="geometry" />
        </mxCell>
        <mxCell id="69dHTjxdRG7O87KD0P2G-30" value="" style="endArrow=none;html=1;rounded=0;entryX=0;entryY=0.75;entryDx=0;entryDy=0;exitX=1;exitY=0.5;exitDx=0;exitDy=0;" parent="1" source="69dHTjxdRG7O87KD0P2G-29" target="69dHTjxdRG7O87KD0P2G-13" edge="1">
          <mxGeometry width="50" height="50" relative="1" as="geometry">
            <mxPoint x="745" y="430" as="sourcePoint" />
            <mxPoint x="530" y="365" as="targetPoint" />
          </mxGeometry>
        </mxCell>
        <mxCell id="69dHTjxdRG7O87KD0P2G-31" value="assigned to" style="rhombus;whiteSpace=wrap;html=1;" parent="1" vertex="1">
          <mxGeometry x="560" y="440" width="80" height="50" as="geometry" />
        </mxCell>
        <mxCell id="69dHTjxdRG7O87KD0P2G-32" value="" style="endArrow=none;html=1;rounded=0;entryX=0.5;entryY=1;entryDx=0;entryDy=0;exitX=0.5;exitY=0;exitDx=0;exitDy=0;" parent="1" source="69dHTjxdRG7O87KD0P2G-31" target="69dHTjxdRG7O87KD0P2G-13" edge="1">
          <mxGeometry width="50" height="50" relative="1" as="geometry">
            <mxPoint x="600" y="420" as="sourcePoint" />
            <mxPoint x="830" y="730" as="targetPoint" />
          </mxGeometry>
        </mxCell>
        <mxCell id="69dHTjxdRG7O87KD0P2G-33" value="" style="endArrow=none;html=1;rounded=0;exitX=0.5;exitY=0;exitDx=0;exitDy=0;entryX=0.5;entryY=1;entryDx=0;entryDy=0;" parent="1" source="69dHTjxdRG7O87KD0P2G-1" target="69dHTjxdRG7O87KD0P2G-31" edge="1">
          <mxGeometry width="50" height="50" relative="1" as="geometry">
            <mxPoint x="780" y="780" as="sourcePoint" />
            <mxPoint x="830" y="730" as="targetPoint" />
          </mxGeometry>
        </mxCell>
        <mxCell id="69dHTjxdRG7O87KD0P2G-34" value="" style="endArrow=none;html=1;rounded=0;entryX=0;entryY=0.5;entryDx=0;entryDy=0;exitX=1;exitY=0.5;exitDx=0;exitDy=0;" parent="1" source="69dHTjxdRG7O87KD0P2G-36" target="69dHTjxdRG7O87KD0P2G-4" edge="1">
          <mxGeometry width="50" height="50" relative="1" as="geometry">
            <mxPoint x="780" y="780" as="sourcePoint" />
            <mxPoint x="830" y="730" as="targetPoint" />
          </mxGeometry>
        </mxCell>
        <mxCell id="69dHTjxdRG7O87KD0P2G-36" value="consists of" style="rhombus;whiteSpace=wrap;html=1;" parent="1" vertex="1">
          <mxGeometry x="700" y="735" width="80" height="50" as="geometry" />
        </mxCell>
        <mxCell id="69dHTjxdRG7O87KD0P2G-37" value="" style="endArrow=none;html=1;rounded=0;entryX=0;entryY=0.5;entryDx=0;entryDy=0;exitX=1;exitY=0.5;exitDx=0;exitDy=0;" parent="1" source="69dHTjxdRG7O87KD0P2G-10" target="69dHTjxdRG7O87KD0P2G-36" edge="1">
          <mxGeometry width="50" height="50" relative="1" as="geometry">
            <mxPoint x="630" y="780" as="sourcePoint" />
            <mxPoint x="680" y="730" as="targetPoint" />
          </mxGeometry>
        </mxCell>
        <mxCell id="69dHTjxdRG7O87KD0P2G-38" value="requires" style="rhombus;whiteSpace=wrap;html=1;" parent="1" vertex="1">
          <mxGeometry x="670" y="540" width="70" height="60" as="geometry" />
        </mxCell>
        <mxCell id="69dHTjxdRG7O87KD0P2G-39" value="" style="endArrow=none;html=1;rounded=0;entryX=0.5;entryY=0;entryDx=0;entryDy=0;exitX=1;exitY=0;exitDx=0;exitDy=0;" parent="1" source="69dHTjxdRG7O87KD0P2G-1" target="69dHTjxdRG7O87KD0P2G-38" edge="1">
          <mxGeometry width="50" height="50" relative="1" as="geometry">
            <mxPoint x="630" y="780" as="sourcePoint" />
            <mxPoint x="680" y="730" as="targetPoint" />
          </mxGeometry>
        </mxCell>
        <mxCell id="69dHTjxdRG7O87KD0P2G-40" value="" style="endArrow=none;html=1;rounded=0;entryX=0.5;entryY=1;entryDx=0;entryDy=0;exitX=1;exitY=1;exitDx=0;exitDy=0;" parent="1" source="69dHTjxdRG7O87KD0P2G-1" target="69dHTjxdRG7O87KD0P2G-38" edge="1">
          <mxGeometry width="50" height="50" relative="1" as="geometry">
            <mxPoint x="630" y="780" as="sourcePoint" />
            <mxPoint x="680" y="730" as="targetPoint" />
          </mxGeometry>
        </mxCell>
        <mxCell id="69dHTjxdRG7O87KD0P2G-41" value="MC TEST" style="rounded=0;whiteSpace=wrap;html=1;" parent="1" vertex="1">
          <mxGeometry x="460" y="140" width="120" height="60" as="geometry" />
        </mxCell>
        <mxCell id="69dHTjxdRG7O87KD0P2G-42" value="EXTERNAL EXAME" style="rounded=0;whiteSpace=wrap;html=1;" parent="1" vertex="1">
          <mxGeometry x="620" y="140" width="120" height="60" as="geometry" />
        </mxCell>
        <mxCell id="69dHTjxdRG7O87KD0P2G-43" value="is-a" style="shape=hexagon;perimeter=hexagonPerimeter2;whiteSpace=wrap;html=1;fixedSize=1;" parent="1" vertex="1">
          <mxGeometry x="562" y="240" width="78" height="40" as="geometry" />
        </mxCell>
        <mxCell id="69dHTjxdRG7O87KD0P2G-44" value="" style="endArrow=classic;html=1;rounded=0;entryX=0.5;entryY=0;entryDx=0;entryDy=0;exitX=0.75;exitY=1;exitDx=0;exitDy=0;" parent="1" source="69dHTjxdRG7O87KD0P2G-41" target="69dHTjxdRG7O87KD0P2G-43" edge="1">
          <mxGeometry width="50" height="50" relative="1" as="geometry">
            <mxPoint x="630" y="450" as="sourcePoint" />
            <mxPoint x="680" y="400" as="targetPoint" />
          </mxGeometry>
        </mxCell>
        <mxCell id="69dHTjxdRG7O87KD0P2G-45" value="" style="endArrow=classic;html=1;rounded=0;entryX=0.5;entryY=0;entryDx=0;entryDy=0;exitX=0.25;exitY=1;exitDx=0;exitDy=0;" parent="1" source="69dHTjxdRG7O87KD0P2G-42" target="69dHTjxdRG7O87KD0P2G-43" edge="1">
          <mxGeometry width="50" height="50" relative="1" as="geometry">
            <mxPoint x="630" y="450" as="sourcePoint" />
            <mxPoint x="680" y="400" as="targetPoint" />
          </mxGeometry>
        </mxCell>
        <mxCell id="69dHTjxdRG7O87KD0P2G-46" value="" style="endArrow=classic;html=1;rounded=0;entryX=0.5;entryY=0;entryDx=0;entryDy=0;exitX=0.5;exitY=1;exitDx=0;exitDy=0;" parent="1" source="69dHTjxdRG7O87KD0P2G-43" target="69dHTjxdRG7O87KD0P2G-13" edge="1">
          <mxGeometry width="50" height="50" relative="1" as="geometry">
            <mxPoint x="630" y="430" as="sourcePoint" />
            <mxPoint x="680" y="380" as="targetPoint" />
          </mxGeometry>
        </mxCell>
        <mxCell id="69dHTjxdRG7O87KD0P2G-47" value="QUESTIONS" style="rounded=0;whiteSpace=wrap;html=1;" parent="1" vertex="1">
          <mxGeometry x="460" y="-40" width="120" height="60" as="geometry" />
        </mxCell>
        <mxCell id="69dHTjxdRG7O87KD0P2G-49" value="contains" style="rhombus;whiteSpace=wrap;html=1;" parent="1" vertex="1">
          <mxGeometry x="480" y="60" width="80" height="50" as="geometry" />
        </mxCell>
        <mxCell id="69dHTjxdRG7O87KD0P2G-50" value="" style="endArrow=none;html=1;rounded=0;entryX=0.5;entryY=1;entryDx=0;entryDy=0;exitX=0.5;exitY=0;exitDx=0;exitDy=0;" parent="1" source="69dHTjxdRG7O87KD0P2G-41" target="69dHTjxdRG7O87KD0P2G-49" edge="1">
          <mxGeometry width="50" height="50" relative="1" as="geometry">
            <mxPoint x="530" y="350" as="sourcePoint" />
            <mxPoint x="580" y="300" as="targetPoint" />
          </mxGeometry>
        </mxCell>
        <mxCell id="69dHTjxdRG7O87KD0P2G-51" value="" style="endArrow=none;html=1;rounded=0;entryX=0.5;entryY=1;entryDx=0;entryDy=0;exitX=0.5;exitY=0;exitDx=0;exitDy=0;" parent="1" target="69dHTjxdRG7O87KD0P2G-47" edge="1" source="69dHTjxdRG7O87KD0P2G-49">
          <mxGeometry width="50" height="50" relative="1" as="geometry">
            <mxPoint x="520" y="60" as="sourcePoint" />
            <mxPoint x="580" y="300" as="targetPoint" />
          </mxGeometry>
        </mxCell>
        <mxCell id="69dHTjxdRG7O87KD0P2G-52" value="consists of" style="rhombus;whiteSpace=wrap;html=1;" parent="1" vertex="1">
          <mxGeometry x="460" y="-110" width="120" height="60" as="geometry" />
        </mxCell>
        <mxCell id="69dHTjxdRG7O87KD0P2G-53" value="" style="endArrow=none;html=1;rounded=0;entryX=1;entryY=0.5;entryDx=0;entryDy=0;exitX=1;exitY=0;exitDx=0;exitDy=0;" parent="1" source="69dHTjxdRG7O87KD0P2G-47" target="69dHTjxdRG7O87KD0P2G-52" edge="1">
          <mxGeometry width="50" height="50" relative="1" as="geometry">
            <mxPoint x="530" y="-60" as="sourcePoint" />
            <mxPoint x="580" y="-110" as="targetPoint" />
          </mxGeometry>
        </mxCell>
        <mxCell id="69dHTjxdRG7O87KD0P2G-54" value="" style="endArrow=none;html=1;rounded=0;exitX=0;exitY=0.5;exitDx=0;exitDy=0;entryX=0;entryY=0;entryDx=0;entryDy=0;" parent="1" source="69dHTjxdRG7O87KD0P2G-52" target="69dHTjxdRG7O87KD0P2G-47" edge="1">
          <mxGeometry width="50" height="50" relative="1" as="geometry">
            <mxPoint x="530" y="-60" as="sourcePoint" />
            <mxPoint x="580" y="-110" as="targetPoint" />
          </mxGeometry>
        </mxCell>
        <mxCell id="69dHTjxdRG7O87KD0P2G-55" value="Time" style="ellipse;whiteSpace=wrap;html=1;" parent="1" vertex="1">
          <mxGeometry x="380" y="120" width="60" height="30" as="geometry" />
        </mxCell>
        <mxCell id="69dHTjxdRG7O87KD0P2G-56" value="" style="endArrow=none;html=1;rounded=0;entryX=1;entryY=1;entryDx=0;entryDy=0;exitX=0;exitY=0.25;exitDx=0;exitDy=0;" parent="1" source="69dHTjxdRG7O87KD0P2G-41" target="69dHTjxdRG7O87KD0P2G-55" edge="1">
          <mxGeometry width="50" height="50" relative="1" as="geometry">
            <mxPoint x="500" y="390" as="sourcePoint" />
            <mxPoint x="550" y="340" as="targetPoint" />
          </mxGeometry>
        </mxCell>
        <mxCell id="69dHTjxdRG7O87KD0P2G-57" value="&lt;u&gt;QID&lt;/u&gt;" style="ellipse;whiteSpace=wrap;html=1;" parent="1" vertex="1">
          <mxGeometry x="370" y="-60" width="50" height="30" as="geometry" />
        </mxCell>
        <mxCell id="69dHTjxdRG7O87KD0P2G-58" value="" style="endArrow=none;html=1;rounded=0;entryX=0;entryY=0.25;entryDx=0;entryDy=0;exitX=1;exitY=1;exitDx=0;exitDy=0;" parent="1" source="69dHTjxdRG7O87KD0P2G-57" target="69dHTjxdRG7O87KD0P2G-47" edge="1">
          <mxGeometry width="50" height="50" relative="1" as="geometry">
            <mxPoint x="460" y="200" as="sourcePoint" />
            <mxPoint x="510" y="150" as="targetPoint" />
          </mxGeometry>
        </mxCell>
        <mxCell id="69dHTjxdRG7O87KD0P2G-59" value="Question" style="ellipse;whiteSpace=wrap;html=1;" parent="1" vertex="1">
          <mxGeometry x="365" y="-20" width="60" height="30" as="geometry" />
        </mxCell>
        <mxCell id="69dHTjxdRG7O87KD0P2G-60" value="AW True" style="ellipse;whiteSpace=wrap;html=1;" parent="1" vertex="1">
          <mxGeometry x="620" y="-70" width="60" height="30" as="geometry" />
        </mxCell>
        <mxCell id="69dHTjxdRG7O87KD0P2G-61" value="AW False1" style="ellipse;whiteSpace=wrap;html=1;" parent="1" vertex="1">
          <mxGeometry x="620" y="-20" width="65" height="33" as="geometry" />
        </mxCell>
        <mxCell id="69dHTjxdRG7O87KD0P2G-62" value="AW False2" style="ellipse;whiteSpace=wrap;html=1;" parent="1" vertex="1">
          <mxGeometry x="620" y="30" width="64" height="35" as="geometry" />
        </mxCell>
        <mxCell id="69dHTjxdRG7O87KD0P2G-63" value="" style="endArrow=none;html=1;rounded=0;entryX=0;entryY=0.75;entryDx=0;entryDy=0;exitX=1;exitY=0.5;exitDx=0;exitDy=0;" parent="1" source="69dHTjxdRG7O87KD0P2G-59" target="69dHTjxdRG7O87KD0P2G-47" edge="1">
          <mxGeometry width="50" height="50" relative="1" as="geometry">
            <mxPoint x="460" y="200" as="sourcePoint" />
            <mxPoint x="510" y="150" as="targetPoint" />
          </mxGeometry>
        </mxCell>
        <mxCell id="69dHTjxdRG7O87KD0P2G-64" value="" style="endArrow=none;html=1;rounded=0;entryX=0;entryY=1;entryDx=0;entryDy=0;exitX=1;exitY=0.25;exitDx=0;exitDy=0;" parent="1" source="69dHTjxdRG7O87KD0P2G-47" target="69dHTjxdRG7O87KD0P2G-60" edge="1">
          <mxGeometry width="50" height="50" relative="1" as="geometry">
            <mxPoint x="460" y="200" as="sourcePoint" />
            <mxPoint x="510" y="150" as="targetPoint" />
          </mxGeometry>
        </mxCell>
        <mxCell id="69dHTjxdRG7O87KD0P2G-65" value="" style="endArrow=none;html=1;rounded=0;entryX=0;entryY=0.5;entryDx=0;entryDy=0;exitX=1;exitY=0.5;exitDx=0;exitDy=0;" parent="1" source="69dHTjxdRG7O87KD0P2G-47" target="69dHTjxdRG7O87KD0P2G-61" edge="1">
          <mxGeometry width="50" height="50" relative="1" as="geometry">
            <mxPoint x="460" y="200" as="sourcePoint" />
            <mxPoint x="510" y="150" as="targetPoint" />
          </mxGeometry>
        </mxCell>
        <mxCell id="69dHTjxdRG7O87KD0P2G-66" value="" style="endArrow=none;html=1;rounded=0;entryX=0;entryY=0;entryDx=0;entryDy=0;exitX=1;exitY=0.75;exitDx=0;exitDy=0;" parent="1" source="69dHTjxdRG7O87KD0P2G-47" target="69dHTjxdRG7O87KD0P2G-62" edge="1">
          <mxGeometry width="50" height="50" relative="1" as="geometry">
            <mxPoint x="460" y="200" as="sourcePoint" />
            <mxPoint x="510" y="150" as="targetPoint" />
          </mxGeometry>
        </mxCell>
        <mxCell id="69dHTjxdRG7O87KD0P2G-67" value="moderates" style="rhombus;whiteSpace=wrap;html=1;" parent="1" vertex="1">
          <mxGeometry x="322.5" y="465" width="70" height="50" as="geometry" />
        </mxCell>
        <mxCell id="69dHTjxdRG7O87KD0P2G-68" value="" style="endArrow=none;html=1;rounded=0;entryX=0;entryY=0.25;entryDx=0;entryDy=0;exitX=1;exitY=0.5;exitDx=0;exitDy=0;" parent="1" source="69dHTjxdRG7O87KD0P2G-67" target="69dHTjxdRG7O87KD0P2G-1" edge="1">
          <mxGeometry width="50" height="50" relative="1" as="geometry">
            <mxPoint x="460" y="490" as="sourcePoint" />
            <mxPoint x="510" y="440" as="targetPoint" />
            <Array as="points">
              <mxPoint x="450" y="490" />
              <mxPoint x="450" y="555" />
            </Array>
          </mxGeometry>
        </mxCell>
        <mxCell id="69dHTjxdRG7O87KD0P2G-69" value="" style="endArrow=none;html=1;rounded=0;exitX=1;exitY=0.5;exitDx=0;exitDy=0;entryX=0;entryY=0.5;entryDx=0;entryDy=0;" parent="1" source="69dHTjxdRG7O87KD0P2G-7" target="69dHTjxdRG7O87KD0P2G-67" edge="1">
          <mxGeometry width="50" height="50" relative="1" as="geometry">
            <mxPoint x="460" y="490" as="sourcePoint" />
            <mxPoint x="510" y="440" as="targetPoint" />
          </mxGeometry>
        </mxCell>
        <mxCell id="69dHTjxdRG7O87KD0P2G-70" value="&lt;u&gt;P-Nr&lt;/u&gt;" style="ellipse;whiteSpace=wrap;html=1;" parent="1" vertex="1">
          <mxGeometry x="100" y="390" width="60" height="40" as="geometry" />
        </mxCell>
        <mxCell id="69dHTjxdRG7O87KD0P2G-71" value="" style="endArrow=none;html=1;rounded=0;entryX=0.25;entryY=0;entryDx=0;entryDy=0;exitX=1;exitY=1;exitDx=0;exitDy=0;" parent="1" source="69dHTjxdRG7O87KD0P2G-70" target="69dHTjxdRG7O87KD0P2G-7" edge="1">
          <mxGeometry width="50" height="50" relative="1" as="geometry">
            <mxPoint x="180" y="460" as="sourcePoint" />
            <mxPoint x="230" y="410" as="targetPoint" />
          </mxGeometry>
        </mxCell>
        <mxCell id="69dHTjxdRG7O87KD0P2G-72" value="Name" style="ellipse;whiteSpace=wrap;html=1;" parent="1" vertex="1">
          <mxGeometry x="260" y="390" width="60" height="40" as="geometry" />
        </mxCell>
        <mxCell id="69dHTjxdRG7O87KD0P2G-73" value="" style="endArrow=none;html=1;rounded=0;entryX=0;entryY=1;entryDx=0;entryDy=0;exitX=0.75;exitY=0;exitDx=0;exitDy=0;" parent="1" source="69dHTjxdRG7O87KD0P2G-7" target="69dHTjxdRG7O87KD0P2G-72" edge="1">
          <mxGeometry width="50" height="50" relative="1" as="geometry">
            <mxPoint x="270" y="525" as="sourcePoint" />
            <mxPoint x="530" y="715" as="targetPoint" />
          </mxGeometry>
        </mxCell>
        <mxCell id="ah2dRNFCYQN3v43kderR-2" value="PARTICIPANTS" style="rounded=0;whiteSpace=wrap;html=1;" vertex="1" parent="1">
          <mxGeometry x="150" y="620" width="120" height="60" as="geometry" />
        </mxCell>
        <mxCell id="ah2dRNFCYQN3v43kderR-3" value="participates in" style="rhombus;whiteSpace=wrap;html=1;" vertex="1" parent="1">
          <mxGeometry x="310" y="625" width="95" height="50" as="geometry" />
        </mxCell>
        <mxCell id="ah2dRNFCYQN3v43kderR-4" value="" style="endArrow=none;html=1;rounded=0;exitX=1;exitY=0.5;exitDx=0;exitDy=0;entryX=0;entryY=0.5;entryDx=0;entryDy=0;" edge="1" parent="1" source="ah2dRNFCYQN3v43kderR-2" target="ah2dRNFCYQN3v43kderR-3">
          <mxGeometry width="50" height="50" relative="1" as="geometry">
            <mxPoint x="460" y="510" as="sourcePoint" />
            <mxPoint x="510" y="460" as="targetPoint" />
          </mxGeometry>
        </mxCell>
        <mxCell id="ah2dRNFCYQN3v43kderR-5" value="" style="endArrow=none;html=1;rounded=0;exitX=1;exitY=0.5;exitDx=0;exitDy=0;entryX=0;entryY=0.75;entryDx=0;entryDy=0;" edge="1" parent="1" source="ah2dRNFCYQN3v43kderR-3" target="69dHTjxdRG7O87KD0P2G-1">
          <mxGeometry width="50" height="50" relative="1" as="geometry">
            <mxPoint x="460" y="510" as="sourcePoint" />
            <mxPoint x="510" y="460" as="targetPoint" />
            <Array as="points">
              <mxPoint x="450" y="650" />
              <mxPoint x="450" y="585" />
            </Array>
          </mxGeometry>
        </mxCell>
        <mxCell id="ah2dRNFCYQN3v43kderR-6" value="Name" style="ellipse;whiteSpace=wrap;html=1;" vertex="1" parent="1">
          <mxGeometry x="100" y="570" width="60" height="30" as="geometry" />
        </mxCell>
        <mxCell id="ah2dRNFCYQN3v43kderR-7" value="" style="endArrow=none;html=1;rounded=0;exitX=1;exitY=1;exitDx=0;exitDy=0;entryX=0.25;entryY=0;entryDx=0;entryDy=0;" edge="1" parent="1" source="ah2dRNFCYQN3v43kderR-6" target="ah2dRNFCYQN3v43kderR-2">
          <mxGeometry width="50" height="50" relative="1" as="geometry">
            <mxPoint x="440" y="540" as="sourcePoint" />
            <mxPoint x="490" y="490" as="targetPoint" />
          </mxGeometry>
        </mxCell>
        <mxCell id="ah2dRNFCYQN3v43kderR-8" value="&lt;u&gt;Reg. number&lt;/u&gt;" style="ellipse;whiteSpace=wrap;html=1;" vertex="1" parent="1">
          <mxGeometry x="40" y="680" width="90" height="40" as="geometry" />
        </mxCell>
        <mxCell id="ah2dRNFCYQN3v43kderR-9" value="" style="endArrow=none;html=1;rounded=0;exitX=1;exitY=0;exitDx=0;exitDy=0;entryX=0;entryY=0.75;entryDx=0;entryDy=0;" edge="1" parent="1" source="ah2dRNFCYQN3v43kderR-8" target="ah2dRNFCYQN3v43kderR-2">
          <mxGeometry width="50" height="50" relative="1" as="geometry">
            <mxPoint x="480" y="350" as="sourcePoint" />
            <mxPoint x="530" y="300" as="targetPoint" />
          </mxGeometry>
        </mxCell>
        <mxCell id="ah2dRNFCYQN3v43kderR-13" value="(0, 4)" style="text;html=1;align=center;verticalAlign=middle;whiteSpace=wrap;rounded=0;" vertex="1" parent="1">
          <mxGeometry x="260" y="465" width="60" height="30" as="geometry" />
        </mxCell>
        <mxCell id="ah2dRNFCYQN3v43kderR-14" value="(1, 2)" style="text;html=1;align=center;verticalAlign=middle;whiteSpace=wrap;rounded=0;" vertex="1" parent="1">
          <mxGeometry x="490" y="530" width="60" height="30" as="geometry" />
        </mxCell>
        <mxCell id="ah2dRNFCYQN3v43kderR-15" value="(0, *)" style="text;html=1;align=center;verticalAlign=middle;whiteSpace=wrap;rounded=0;" vertex="1" parent="1">
          <mxGeometry x="260" y="625" width="60" height="30" as="geometry" />
        </mxCell>
        <mxCell id="ah2dRNFCYQN3v43kderR-16" value="(0, *)" style="text;html=1;align=center;verticalAlign=middle;whiteSpace=wrap;rounded=0;" vertex="1" parent="1">
          <mxGeometry x="490" y="560" width="60" height="30" as="geometry" />
        </mxCell>
        <mxCell id="ah2dRNFCYQN3v43kderR-19" value="(1, *)" style="text;html=1;align=center;verticalAlign=middle;whiteSpace=wrap;rounded=0;" vertex="1" parent="1">
          <mxGeometry x="555" y="595" width="60" height="30" as="geometry" />
        </mxCell>
        <mxCell id="ah2dRNFCYQN3v43kderR-20" value="order" style="ellipse;whiteSpace=wrap;html=1;" vertex="1" parent="1">
          <mxGeometry x="713.5" y="616" width="53" height="30" as="geometry" />
        </mxCell>
        <mxCell id="ah2dRNFCYQN3v43kderR-21" value="" style="endArrow=none;html=1;rounded=0;exitX=0;exitY=0.5;exitDx=0;exitDy=0;entryX=1;entryY=1;entryDx=0;entryDy=0;" edge="1" parent="1" source="ah2dRNFCYQN3v43kderR-20" target="69dHTjxdRG7O87KD0P2G-1">
          <mxGeometry width="50" height="50" relative="1" as="geometry">
            <mxPoint x="679" y="635" as="sourcePoint" />
            <mxPoint x="729" y="585" as="targetPoint" />
          </mxGeometry>
        </mxCell>
        <mxCell id="ah2dRNFCYQN3v43kderR-23" value="(0, *)" style="text;html=1;align=center;verticalAlign=middle;whiteSpace=wrap;rounded=0;" vertex="1" parent="1">
          <mxGeometry x="555" y="705" width="60" height="30" as="geometry" />
        </mxCell>
        <mxCell id="ah2dRNFCYQN3v43kderR-24" value="&lt;h1 style=&quot;margin-top: 0px;&quot;&gt;E-Learning ERM&lt;/h1&gt;&lt;div style=&quot;box-sizing: border-box; position: relative; flex: 1 1 auto; padding: 1rem; color: rgb(33, 37, 41); font-family: Nunito, sans-serif; font-size: 14.4px;&quot; class=&quot;modal-body&quot;&gt;&lt;div style=&quot;box-sizing: border-box; margin-bottom: 0px;&quot; class=&quot;card-text&quot;&gt;&lt;p style=&quot;text-align: justify; box-sizing: border-box; margin-top: 0px; margin-bottom: 1rem;&quot;&gt;&lt;span style=&quot;box-sizing: border-box; color: rgb(32, 33, 34); font-family: sans-serif; font-size: 14px;&quot;&gt;The data structure of a new e-learning system is to be implemented. Draw the following facts in an ER diagram notation and create a relational model No null values are allowed. An e-course is clearly identified by a course number (LVANR). In addition, a designation (NAME) is stored, a maximum number of participants (MAXIMUM) and the amount of time (SIZE) required to complete the course. It is noted which e-courses are a prerequisite for which other e-courses. Learning modules have a name (NAME) and a unique identification number (ID). Courses are assigned several learning modules (at least one). Learning modules can be used for several courses. For each course the sequence (ORDER) of modules is noted. Each learning module contains several learning objects (e.g. pictures, texts, videos). Learning objects are uniquely identified by their name (NAME). The type (TYPE) is also stored for learning objects. In some cases, an e-course may also be assigned a test module (maximum). A mode (MODE) of a test module is known and a unique name (DEFINITION) - a test module can be assigned to several e-courses. MC tests and external exams are testmodules. A time (TIME) is known for each MC test. An MC test consists of several questions. Questions are clearly identified by an identification number (QID). For this purpose, the text (QUESTION), one correct (AW TRUE) and two incorrect answers (AW FALSE1, AW FALSE2) must be stored, whereby a question can occur in several different MC tests. Persons are uniquely identified by a personal number (PNR). The name (NAME) is also stored. Persons can participate in any number of courses. An e-course, is moderated by at least one and at most two persons, whereby one person can moderate a maximum of four courses.&lt;/span&gt;&lt;/p&gt;&lt;/div&gt;&lt;/div&gt;" style="text;html=1;whiteSpace=wrap;overflow=hidden;rounded=0;" vertex="1" parent="1">
          <mxGeometry x="77" y="-400" width="1046" height="284" as="geometry" />
        </mxCell>
        <mxCell id="ah2dRNFCYQN3v43kderR-26" value="(*)" style="text;html=1;align=center;verticalAlign=middle;whiteSpace=wrap;rounded=0;" vertex="1" parent="1">
          <mxGeometry x="645" y="735" width="60" height="30" as="geometry" />
        </mxCell>
        <mxCell id="ah2dRNFCYQN3v43kderR-27" value="(0, *)" style="text;html=1;align=center;verticalAlign=middle;whiteSpace=wrap;rounded=0;" vertex="1" parent="1">
          <mxGeometry x="774" y="735" width="60" height="30" as="geometry" />
        </mxCell>
        <mxCell id="ah2dRNFCYQN3v43kderR-28" value="(0, 1)" style="text;html=1;align=center;verticalAlign=middle;whiteSpace=wrap;rounded=0;" vertex="1" parent="1">
          <mxGeometry x="555" y="515" width="60" height="30" as="geometry" />
        </mxCell>
        <mxCell id="ah2dRNFCYQN3v43kderR-29" value="(0, *)" style="text;html=1;align=center;verticalAlign=middle;whiteSpace=wrap;rounded=0;" vertex="1" parent="1">
          <mxGeometry x="554" y="384" width="60" height="30" as="geometry" />
        </mxCell>
        <mxCell id="ah2dRNFCYQN3v43kderR-34" value="(0, *)" style="text;html=1;align=center;verticalAlign=middle;whiteSpace=wrap;rounded=0;" vertex="1" parent="1">
          <mxGeometry x="445" y="-65" width="60" height="30" as="geometry" />
        </mxCell>
        <mxCell id="ah2dRNFCYQN3v43kderR-35" value="(0, *)" style="text;html=1;align=center;verticalAlign=middle;whiteSpace=wrap;rounded=0;" vertex="1" parent="1">
          <mxGeometry x="535" y="-65" width="60" height="30" as="geometry" />
        </mxCell>
        <mxCell id="ah2dRNFCYQN3v43kderR-36" value="(*)" style="text;html=1;align=center;verticalAlign=middle;whiteSpace=wrap;rounded=0;" vertex="1" parent="1">
          <mxGeometry x="475" y="113" width="60" height="30" as="geometry" />
        </mxCell>
        <mxCell id="ah2dRNFCYQN3v43kderR-38" value="(0, *)" style="text;html=1;align=center;verticalAlign=middle;whiteSpace=wrap;rounded=0;" vertex="1" parent="1">
          <mxGeometry x="475" y="15" width="60" height="30" as="geometry" />
        </mxCell>
        <mxCell id="ah2dRNFCYQN3v43kderR-39" value="(0, *)" style="text;html=1;align=center;verticalAlign=middle;whiteSpace=wrap;rounded=0;" vertex="1" parent="1">
          <mxGeometry x="643" y="535" width="60" height="30" as="geometry" />
        </mxCell>
        <mxCell id="ah2dRNFCYQN3v43kderR-40" value="(1, *)" style="text;html=1;align=center;verticalAlign=middle;whiteSpace=wrap;rounded=0;" vertex="1" parent="1">
          <mxGeometry x="645" y="575" width="60" height="30" as="geometry" />
        </mxCell>
      </root>
    </mxGraphModel>
  </diagram>
</mxfile>
